<svg width="69" height="69" viewBox="0 0 69 69" fill="none" xmlns="http://www.w3.org/2000/svg">
<path d="M40.7127 10.8083C40.6858 13.3958 39.0686 15.8216 36.5754 16.6706C34.0957 17.5196 31.36 16.7649 29.6754 14.7569C28.0043 12.7489 27.8291 9.82452 29.1633 7.60089C30.5109 5.39073 33.1793 4.17784 35.7129 4.70343C38.6104 5.30987 40.6723 7.85694 40.7127 10.8083C40.7262 12.1021 42.7477 12.1155 42.7342 10.8083C42.6938 7.34483 40.5375 4.27218 37.2897 3.05928C34.1092 1.88682 30.3627 2.91104 28.2065 5.49854C25.9828 8.1669 25.6324 12.0347 27.4383 15.0265C29.2172 17.9913 32.6942 19.4872 36.0768 18.8808C39.9445 18.18 42.6938 14.6626 42.7477 10.7948C42.7477 9.50108 40.7262 9.50108 40.7127 10.8083ZM21.7916 27.7618C24.4869 25.1339 27.8426 23.2741 31.5756 22.6273C35.066 22.0208 38.7451 22.5733 41.9391 24.0962C43.8932 25.0261 45.6586 26.2794 47.2084 27.7753C48.1518 28.6782 49.5803 27.2497 48.6369 26.3468C45.6856 23.5032 41.9795 21.4278 37.9231 20.7001C33.9475 19.9858 29.891 20.5249 26.2389 22.223C24.0557 23.2337 22.0881 24.6757 20.3631 26.3468C19.4332 27.2362 20.8617 28.6648 21.7916 27.7618ZM9.67618 42.6534C9.67618 40.1603 9.67618 37.6671 9.67618 35.1739C9.67618 34.3653 9.46056 33.1794 9.81095 32.4112C10.2422 31.4409 11.3608 31.1579 12.3176 31.1579C16.2123 31.1444 20.1205 31.1579 24.0152 31.1579C30.5379 31.1579 37.074 31.1579 43.5967 31.1579C48.0574 31.1579 52.5182 31.1579 56.9789 31.1579C57.2215 31.1579 57.4641 31.1579 57.7067 31.1579C58.6231 31.1714 59.6608 31.5622 60.0381 32.4786C60.1729 32.8021 60.1459 33.1525 60.1459 33.5028C60.1459 36.306 60.1459 39.1091 60.1459 41.9122C60.1459 42.1683 60.1459 42.4108 60.1459 42.6669C60.1459 43.9741 62.1674 43.9741 62.1674 42.6669C62.1674 40.0794 62.1674 37.4919 62.1674 34.9044C62.1674 33.7993 62.3022 32.5864 61.8305 31.5487C61.0893 29.945 59.3238 29.1499 57.6258 29.1364C53.8119 29.1095 49.9846 29.1364 46.1707 29.1364C39.4324 29.1364 32.7076 29.1364 25.9693 29.1364C21.5221 29.1364 17.0613 29.1364 12.6141 29.1364C11.9672 29.1364 11.3068 29.1499 10.6734 29.3386C8.81368 29.8911 7.64122 31.4274 7.64122 33.3546C7.64122 36.1982 7.64122 39.0282 7.64122 41.8718C7.64122 42.1413 7.64122 42.3974 7.64122 42.6669C7.6547 43.9607 9.67618 43.9607 9.67618 42.6534ZM16.118 52.3026C16.091 53.9872 15.0668 55.5235 13.4766 56.1165C11.8459 56.723 9.98614 56.2108 8.89454 54.8632C6.57657 52.0062 9.16407 47.6263 12.7893 48.3136C14.7164 48.6774 16.0775 50.3485 16.118 52.3026C16.1449 53.5964 18.1664 53.6099 18.1395 52.3026C18.099 49.7286 16.5223 47.4646 14.0965 46.5751C11.7246 45.6991 8.93497 46.4942 7.35821 48.4618C5.76798 50.4025 5.5254 53.1921 6.80567 55.3753C8.1129 57.6124 10.7139 58.731 13.234 58.2728C16.091 57.7472 18.0856 55.1462 18.1395 52.3026C18.1529 51.0089 16.1315 51.0089 16.118 52.3026ZM3.3422 64.4181C5.7006 62.1271 8.78673 60.6985 12.102 60.739C15.3633 60.7659 18.4225 62.181 20.7539 64.4181C21.6973 65.321 23.1258 63.8925 22.1824 62.9896C19.4602 60.3886 15.8889 58.7444 12.102 58.7175C8.26114 58.6905 4.64942 60.3347 1.91368 62.9896C0.983799 63.8925 2.41231 65.321 3.3422 64.4181Z" fill="#1E1E1E"/>
<path d="M38.5565 52.3027C38.5295 53.9872 37.5053 55.5236 35.9151 56.1165C34.2844 56.723 32.4246 56.2109 31.333 54.8632C29.0151 52.0062 31.6026 47.6263 35.2278 48.3136C37.1684 48.6775 38.5295 50.3486 38.5565 52.3027C38.5834 53.5964 40.6049 53.6099 40.578 52.3027C40.5375 49.7286 38.9608 47.4646 36.535 46.5751C34.1631 45.6992 31.3735 46.4943 29.7967 48.4618C28.22 50.4159 27.9774 53.2056 29.2442 55.3753C30.5514 57.6124 33.1524 58.731 35.6725 58.2728C38.5295 57.7472 40.5241 55.1462 40.578 52.3027C40.6049 51.0089 38.5834 51.0089 38.5565 52.3027ZM25.7942 64.4181C28.1526 62.1271 31.2387 60.6986 34.5539 60.739C37.8153 60.7659 40.8745 62.181 43.2059 64.4181C44.1493 65.321 45.5778 63.8925 44.6344 62.9896C41.9121 60.3886 38.3409 58.7445 34.5539 58.7175C30.7131 58.6906 27.1014 60.3347 24.3657 62.9896C23.4223 63.8925 24.8508 65.321 25.7942 64.4181Z" fill="#1E1E1E"/>
<path d="M61.0084 52.3027C60.9814 53.9872 59.9572 55.5236 58.367 56.1165C56.7363 56.723 54.8765 56.2109 53.7849 54.8632C51.467 52.0062 54.0545 47.6263 57.6797 48.3136C59.6203 48.6775 60.9679 50.3486 61.0084 52.3027C61.0353 53.5964 63.0568 53.6099 63.0298 52.3027C62.9894 49.7286 61.4127 47.4646 58.9869 46.5751C56.615 45.6992 53.8254 46.4943 52.2486 48.4618C50.6718 50.4159 50.4293 53.2056 51.6961 55.3753C53.0033 57.6124 55.6043 58.731 58.1244 58.2728C60.9814 57.7472 62.9759 55.1462 63.0298 52.3027C63.0568 51.0089 61.0353 51.0089 61.0084 52.3027ZM48.2326 64.4181C50.591 62.1271 53.6771 60.6986 56.9923 60.739C60.2537 60.7659 63.3129 62.181 65.6443 64.4181C66.5877 65.321 68.0162 63.8925 67.0728 62.9896C64.3506 60.3886 60.7793 58.7445 56.9923 58.7175C53.1515 58.6906 49.5398 60.3347 46.8041 62.9896C45.8742 63.8925 47.3027 65.321 48.2326 64.4181Z" fill="#1E1E1E"/>
</svg>
