<svg width="58" height="58" viewBox="0 0 58 58" fill="none" xmlns="http://www.w3.org/2000/svg">
<g clip-path="url(#clip0_291_2679)">
<path d="M31.5676 47.4487L32.787 44.2013L29.0462 41.4487L25.2931 44.2109L26.6495 47.4487H31.5676Z" fill="#EF4C35"/>
<path d="M26.6493 47.4486L26.7207 47.6194L25.0463 57.9998H33.1835L31.5072 47.6095L31.5674 47.4486H26.6493Z" fill="#DD3E2B"/>
<path d="M26.0899 57.9999L27.7847 47.4934L26.147 43.5826L20.8923 38.5865L21.921 46.0778L25.2602 57.9999H26.0899Z" fill="#D2D2D7"/>
<path d="M32.9853 57.9999L36.363 45.9402L37.3923 38.4473L31.9248 43.5677L30.447 47.5035L32.1402 57.9999H32.9853Z" fill="#E4E4EA"/>
<path d="M33.063 45.6717C34.1444 46.4675 34.7984 45.7591 35.0426 45.3905L38.4878 38.3091L34.0414 35.3743L32.9919 37.2641L29.0812 41.3237L25.2756 37.6167L24.5381 35.0532L19.6048 38.3089L22.9688 45.2234C23.0618 45.4073 23.7441 46.6289 25.0451 45.6726L29.0461 42.7281L32.8594 45.5342C32.9199 45.571 32.9867 45.6154 33.063 45.6717Z" fill="#F5F5F7"/>
<path d="M29.6133 0H28.5699C21.4417 0 15.6429 5.79954 15.6429 12.9274V14.6515V16.2652V18.9917C15.6429 18.9917 18.586 18.6998 18.948 17.2725L18.9461 17.2711C19.0704 17.1359 19.1743 16.982 19.2475 16.8098C20.917 16.7595 28.7153 16.6988 33.1687 11.3203C33.7002 12.8751 35.4979 15.819 38.9573 16.7461C39.0287 16.9337 39.1346 17.1029 39.2642 17.2495L39.2355 17.2726C39.5974 18.6999 42.5406 18.9918 42.5406 18.9918V16.2541V14.6515V12.9274C42.5406 5.79954 36.7413 0 29.6133 0ZM39.3597 16.3442L39.4842 16.254H39.5019L39.2991 16.4042L39.3597 16.3442ZM39.2964 16.383L39.3103 16.3391L39.3535 16.254H39.371L39.3197 16.3608L39.2964 16.383ZM38.9535 16.6481L38.9487 16.6413L39.2675 16.4107L39.1923 16.4834L38.9592 16.6557L38.9535 16.6481ZM39.2166 16.5732L39.1168 16.7798C39.116 16.7795 39.1158 16.7795 39.115 16.7791L39.1011 16.7727C39.0988 16.7717 39.0962 16.7701 39.0943 16.7691L39.2569 16.4457L39.2612 16.4416L39.2166 16.5732Z" fill="#694B4B"/>
<path d="M17.9215 16.2651V14.6514V12.9273C17.9215 6.00615 23.3888 0.339268 30.2309 0.0157373C30.0259 0.00588183 29.8202 -0.00012207 29.6133 -0.00012207H28.5699C21.4417 -0.00012207 15.6429 5.79941 15.6429 12.9273V14.6514V16.2651V18.9916C15.6429 18.9916 16.9434 18.8619 17.9216 18.3564V16.2651H17.9215Z" fill="#563B3B"/>
<path d="M40.9881 17.1176C40.4934 16.9634 39.956 17.0535 39.5389 17.36C39.1221 17.6668 38.876 18.1539 38.876 18.6715V23.3095C38.876 23.8269 39.122 24.3137 39.5389 24.62C39.8221 24.8285 40.1607 24.9369 40.5037 24.9369C40.6654 24.9369 40.8293 24.913 40.9876 24.8631C41.2997 24.7661 41.6061 24.6257 41.8985 24.4463C42.0705 24.341 42.2215 24.2038 42.3437 24.0435C42.5232 23.9508 42.6839 23.8258 42.8179 23.6745C43.4755 22.9308 43.8378 21.9777 43.8378 20.9899C43.8378 19.205 42.6928 17.6488 40.9881 17.1176Z" fill="#FBCB99"/>
<path d="M18.6916 17.3597C18.2747 17.0532 17.7368 16.9632 17.2427 17.1169C15.5382 17.6487 14.3924 19.2049 14.3924 20.9897C14.3924 22.7752 15.5381 24.3314 17.2427 24.8629C17.4011 24.9127 17.5646 24.9367 17.7272 24.9367C18.0697 24.9367 18.4083 24.8283 18.6916 24.62C19.109 24.3135 19.3549 23.8267 19.3549 23.3092V18.6706C19.3549 18.1536 19.109 17.6665 18.6916 17.3597Z" fill="#EDBA89"/>
<path d="M33.5591 31.3946C33.2391 31.0884 32.8097 30.9277 32.364 30.9441L32.3087 30.9467C32.2093 30.9501 32.1103 30.9631 32.013 30.9842C31.3844 31.1241 30.7438 31.1952 30.1105 31.1952H28.1206C27.468 31.1952 26.809 31.1201 26.1612 30.9717C25.6777 30.8603 25.1709 30.9759 24.7834 31.2848C24.3957 31.5936 24.1698 32.0627 24.1698 32.5578V37.2923L24.1689 37.3083C24.1432 37.7779 24.3214 38.2358 24.6581 38.5643L27.9285 41.7498C28.2325 42.0459 28.6402 42.211 29.0638 42.211C29.0726 42.211 29.0817 42.211 29.0902 42.211C29.5233 42.2038 29.9361 42.0246 30.2363 41.7123L33.6055 38.2151C33.8979 37.9118 34.061 37.5071 34.061 37.0862V32.5704C34.0609 32.1263 33.8798 31.7017 33.5591 31.3946Z" fill="#FBCB99"/>
<path d="M29.3938 41.2609L26.1232 38.0757C25.7864 37.7475 25.608 37.2898 25.6337 36.8198L25.6352 36.8037V32.0692C25.6352 31.6528 25.7964 31.2563 26.0776 30.957C25.6199 30.8771 25.1487 30.9941 24.7837 31.2847C24.396 31.5935 24.1701 32.0626 24.1701 32.5577V37.2922L24.1692 37.3082C24.1435 37.7778 24.3217 38.2357 24.6585 38.5642L27.9288 41.7497C28.2328 42.0458 28.6405 42.2108 29.0641 42.2108C29.0729 42.2108 29.082 42.2108 29.0905 42.2108C29.5236 42.2037 29.9364 42.0245 30.2365 41.7122L30.251 41.697C29.9299 41.6416 29.6301 41.4915 29.3938 41.2609Z" fill="#EDBA89"/>
<path d="M38.6306 15.7891C38.4338 15.7157 38.248 15.6303 38.0666 15.5393C35.3317 14.2632 34.1965 12.6034 33.7395 11.6132C33.7124 11.5759 33.6851 11.5346 33.6574 11.4828C33.3306 10.8819 32.8211 11.2623 32.8211 11.2623L32.8189 11.261C30.2648 13.22 27.4751 14.3656 25.1558 15.0322C24.2529 15.2989 23.388 15.4919 22.6058 15.6321C21.0512 15.9176 20.0518 15.955 20.0518 15.955C19.2002 16.0162 18.5407 16.7252 18.5407 17.5787V24.2198C18.5407 29.5022 22.8386 33.7996 28.1205 33.7996H30.1104C35.3923 33.7996 39.6898 29.5023 39.6898 24.2198V17.3141C39.6899 16.6342 39.2672 16.0266 38.6306 15.7891Z" fill="#FBCB99"/>
<path d="M20.4939 24.2198V17.5787C20.4939 16.7251 21.1532 16.0163 22.0047 15.9549C22.0047 15.9549 23.0038 15.9176 24.5587 15.6321C25.3412 15.4919 26.2061 15.2989 27.1092 15.0322C29.1614 14.4419 31.5828 13.4756 33.8836 11.9033C33.8295 11.8016 33.7814 11.7046 33.7393 11.6131C33.7123 11.5757 33.685 11.5345 33.6572 11.4827C33.3304 10.8818 32.821 11.2622 32.821 11.2622L32.8187 11.2609C30.2647 13.2199 27.4749 14.3655 25.1556 15.032C24.2527 15.2988 23.3878 15.4917 22.6056 15.632C21.0511 15.9175 20.0516 15.9548 20.0516 15.9548C19.2 16.0161 18.5405 16.725 18.5405 17.5786V24.2197C18.5405 29.5021 22.8384 33.7994 28.1204 33.7994H30.0729C24.7914 33.7995 20.4939 29.5022 20.4939 24.2198Z" fill="#EDBA89"/>
<path d="M10.4653 57.9998H26.3302L20.6451 37.7036L14.7818 40.147L14.7739 40.1499C12.3925 40.9858 8.36249 44.0181 8.36249 50.0793V55.8994C8.39398 56.5272 8.65962 57.9998 10.4653 57.9998Z" fill="#324A5E"/>
<path d="M49.6375 55.97V50.0797C49.6375 43.944 45.4461 40.9037 43.2174 40.1469L37.5746 37.7957L31.915 58H47.5389C49.2802 57.9999 49.5894 56.6302 49.6375 55.97Z" fill="#324A5E"/>
<path d="M20.6451 37.7037L14.7818 40.1471L14.7739 40.15C12.3925 40.9859 8.36249 44.0182 8.36249 50.0795V55.8995C8.39398 56.5271 8.65974 57.9997 10.4653 57.9997H10.7285V50.0795C10.7285 44.0181 14.7583 40.9858 17.1398 40.15L17.1477 40.1471L20.8924 38.5865L20.6451 37.7037Z" fill="#283D4C"/>
<path d="M43.0303 57.9999V49.9082C43.0303 49.4001 42.6184 48.9883 42.1104 48.9883C41.6022 48.9883 41.1904 49.4001 41.1904 49.9082V57.9999H43.0303Z" fill="#283D4C"/>
<path d="M17.04 57.9999V49.9082C17.04 49.4001 16.6283 48.9883 16.1201 48.9883C15.6119 48.9883 15.2001 49.4001 15.2001 49.9082V57.9999H17.04Z" fill="#283D4C"/>
<path d="M30.0491 24.9995C30.3872 24.9995 30.6624 25.2747 30.6624 25.6128C30.6624 25.9509 30.3872 26.2261 30.0491 26.2261H28.482C28.1438 26.2261 27.8687 25.9509 27.8687 25.6128V22.6233C27.8687 22.2852 28.1438 22.01 28.482 22.01C28.8201 22.01 29.0953 22.2852 29.0953 22.6233V24.9995H30.0491Z" fill="#EDBA89"/>
</g>
<defs>
<clipPath id="clip0_291_2679">
<rect width="58" height="58" fill="white"/>
</clipPath>
</defs>
</svg>
