<svg width="32" height="32" viewBox="0 0 32 32" fill="none" xmlns="http://www.w3.org/2000/svg">
<path d="M17.3333 5.3335H4" stroke="#969AB8" stroke-width="1.5" stroke-linecap="round" stroke-linejoin="round"/>
<path d="M14.6667 25.3335H4" stroke="#969AB8" stroke-width="1.5" stroke-linecap="round" stroke-linejoin="round"/>
<path d="M28 25L19 25" stroke="#969AB8" stroke-width="1.5" stroke-linecap="round" stroke-linejoin="round"/>
<path d="M28 15.3335H14.6667" stroke="#969AB8" stroke-width="1.5" stroke-linecap="round" stroke-linejoin="round"/>
<path d="M28 5L22 5" stroke="#969AB8" stroke-width="1.5" stroke-linecap="round" stroke-linejoin="round"/>
<path d="M10 15H4" stroke="#969AB8" stroke-width="1.5" stroke-linecap="round" stroke-linejoin="round"/>
<path d="M19.3333 2.6665C19.9545 2.6665 20.2652 2.6665 20.5102 2.768C20.8369 2.90332 21.0965 3.16289 21.2318 3.4896C21.3333 3.73462 21.3333 4.04525 21.3333 4.6665V5.99984C21.3333 6.62109 21.3333 6.93172 21.2318 7.17674C21.0965 7.50345 20.8369 7.76302 20.5102 7.89834C20.2652 7.99984 19.9545 7.99984 19.3333 7.99984C18.7121 7.99984 18.4014 7.99984 18.1564 7.89834C17.8297 7.76302 17.5701 7.50345 17.4348 7.17674C17.3333 6.93172 17.3333 6.62109 17.3333 5.99984V4.6665C17.3333 4.04525 17.3333 3.73462 17.4348 3.4896C17.5701 3.16289 17.8297 2.90332 18.1564 2.768C18.4014 2.6665 18.7121 2.6665 19.3333 2.6665Z" stroke="#969AB8" stroke-width="1.5" stroke-linecap="round" stroke-linejoin="round"/>
<path d="M16.6667 22.6665C17.2879 22.6665 17.5986 22.6665 17.8436 22.768C18.1703 22.9033 18.4299 23.1629 18.5652 23.4896C18.6667 23.7346 18.6667 24.0453 18.6667 24.6665V25.9998C18.6667 26.621 18.6667 26.9317 18.5652 27.1768C18.4299 27.5034 18.1703 27.763 17.8436 27.8984C17.5986 27.9998 17.2879 27.9998 16.6667 27.9998C16.0455 27.9998 15.7348 27.9998 15.4898 27.8984C15.1631 27.763 14.9035 27.5034 14.7682 27.1768C14.6667 26.9317 14.6667 26.621 14.6667 25.9998V24.6665C14.6667 24.0453 14.6667 23.7346 14.7682 23.4896C14.9035 23.1629 15.1631 22.9033 15.4898 22.768C15.7348 22.6665 16.0455 22.6665 16.6667 22.6665Z" stroke="#969AB8" stroke-width="1.5" stroke-linecap="round" stroke-linejoin="round"/>
<path d="M12.6667 12.6665C13.2879 12.6665 13.5986 12.6665 13.8436 12.768C14.1703 12.9033 14.4299 13.1629 14.5652 13.4896C14.6667 13.7346 14.6667 14.0453 14.6667 14.6665V15.9998C14.6667 16.621 14.6667 16.9317 14.5652 17.1768C14.4299 17.5034 14.1703 17.763 13.8436 17.8984C13.5986 17.9998 13.2879 17.9998 12.6667 17.9998C12.0454 17.9998 11.7348 17.9998 11.4898 17.8984C11.1631 17.763 10.9035 17.5034 10.7682 17.1768C10.6667 16.9317 10.6667 16.621 10.6667 15.9998V14.6665C10.6667 14.0453 10.6667 13.7346 10.7682 13.4896C10.9035 13.1629 11.1631 12.9033 11.4898 12.768C11.7348 12.6665 12.0454 12.6665 12.6667 12.6665Z" stroke="#969AB8" stroke-width="1.5" stroke-linecap="round" stroke-linejoin="round"/>
</svg>
