<svg width="59" height="59" viewBox="0 0 59 59" fill="none" xmlns="http://www.w3.org/2000/svg">
<g clip-path="url(#clip0_291_2707)">
<path d="M0.984375 2.7666C0.984375 2.29393 1.17214 1.84061 1.50638 1.50638C1.84061 1.17214 2.29393 0.984375 2.7666 0.984375L13.46 0.984375C13.9326 0.984375 14.386 1.17214 14.7202 1.50638C15.0544 1.84061 15.2422 2.29393 15.2422 2.7666C15.2422 3.23928 15.0544 3.69259 14.7202 4.02683C14.386 4.36106 13.9326 4.54883 13.46 4.54883H5.54883C4.99654 4.54883 4.54883 4.99654 4.54883 5.54883V13.46C4.54883 13.9326 4.36106 14.386 4.02683 14.7202C3.69259 15.0544 3.23928 15.2422 2.7666 15.2422C2.29393 15.2422 1.84061 15.0544 1.50638 14.7202C1.17214 14.386 0.984375 13.9326 0.984375 13.46V2.7666ZM43.7578 2.7666C43.7578 2.29393 43.9456 1.84061 44.2798 1.50638C44.614 1.17214 45.0674 0.984375 45.54 0.984375L56.2334 0.984375C56.7061 0.984375 57.1594 1.17214 57.4936 1.50638C57.8279 1.84061 58.0156 2.29393 58.0156 2.7666V13.46C58.0156 13.9326 57.8279 14.386 57.4936 14.7202C57.1594 15.0544 56.7061 15.2422 56.2334 15.2422C55.7607 15.2422 55.3074 15.0544 54.9732 14.7202C54.6389 14.386 54.4512 13.9326 54.4512 13.46V5.54883C54.4512 4.99654 54.0035 4.54883 53.4512 4.54883H45.54C45.0674 4.54883 44.614 4.36106 44.2798 4.02683C43.9456 3.69259 43.7578 3.23928 43.7578 2.7666ZM2.7666 43.7578C3.23928 43.7578 3.69259 43.9456 4.02683 44.2798C4.36106 44.614 4.54883 45.0674 4.54883 45.54V53.4512C4.54883 54.0035 4.99654 54.4512 5.54883 54.4512H13.46C13.9326 54.4512 14.386 54.6389 14.7202 54.9732C15.0544 55.3074 15.2422 55.7607 15.2422 56.2334C15.2422 56.7061 15.0544 57.1594 14.7202 57.4936C14.386 57.8279 13.9326 58.0156 13.46 58.0156H2.7666C2.29393 58.0156 1.84061 57.8279 1.50638 57.4936C1.17214 57.1594 0.984375 56.7061 0.984375 56.2334V45.54C0.984375 45.0674 1.17214 44.614 1.50638 44.2798C1.84061 43.9456 2.29393 43.7578 2.7666 43.7578ZM56.2334 43.7578C56.7061 43.7578 57.1594 43.9456 57.4936 44.2798C57.8279 44.614 58.0156 45.0674 58.0156 45.54V56.2334C58.0156 56.7061 57.8279 57.1594 57.4936 57.4936C57.1594 57.8279 56.7061 58.0156 56.2334 58.0156H45.54C45.0674 58.0156 44.614 57.8279 44.2798 57.4936C43.9456 57.1594 43.7578 56.7061 43.7578 56.2334C43.7578 55.7607 43.9456 55.3074 44.2798 54.9732C44.614 54.6389 45.0674 54.4512 45.54 54.4512H53.4512C54.0035 54.4512 54.4512 54.0035 54.4512 53.4512V45.54C54.4512 45.0674 54.6389 44.614 54.9732 44.2798C55.3074 43.9456 55.7607 43.7578 56.2334 43.7578ZM15.2422 16.2422C15.2422 15.6899 15.6899 15.2422 16.2422 15.2422H17.8066C18.3589 15.2422 18.8066 15.6899 18.8066 16.2422V17.8066C18.8066 18.3589 18.3589 18.8066 17.8066 18.8066H16.2422C15.6899 18.8066 15.2422 18.3589 15.2422 17.8066V16.2422Z" fill="#ED7902"/>
<path d="M25.9355 8.11328H8.11328V25.9355H25.9355V8.11328ZM11.6777 11.6777H22.3711V22.3711H11.6777V11.6777ZM18.8066 40.1934H15.2422V43.7578H18.8066V40.1934Z" fill="#ED7902"/>
<path d="M25.9355 33.0645H8.11328V50.8867H25.9355V33.0645ZM11.6777 36.6289H22.3711V47.3223H11.6777V36.6289ZM40.1934 15.2422H43.7578V18.8066H40.1934V15.2422Z" fill="#ED7902"/>
<path d="M33.0645 8.11328H50.8867V25.9355H33.0645V8.11328ZM36.6289 11.6777V22.3711H47.3223V11.6777H36.6289ZM29.5 29.5V36.6289H33.0645V40.1934H29.5V43.7578H36.6289V36.6289H40.1934V43.7578H43.7578V40.1934H50.8867V36.6289H40.1934V29.5H29.5ZM36.6289 36.6289H33.0645V33.0645H36.6289V36.6289ZM50.8867 43.7578H47.3223V47.3223H40.1934V50.8867H50.8867V43.7578ZM36.6289 50.8867V47.3223H29.5V50.8867H36.6289Z" fill="#ED7902"/>
<path d="M43.7578 33.0645H50.8867V29.5H43.7578V33.0645Z" fill="#ED7902"/>
<circle cx="16.9848" cy="16.9848" r="2.05946" fill="#ED7902"/>
</g>
<defs>
<clipPath id="clip0_291_2707">
<rect width="57.0312" height="57.0312" fill="white" transform="translate(0.984375 0.984375)"/>
</clipPath>
</defs>
</svg>
