<svg width="18" height="18" viewBox="0 0 18 18" fill="none" xmlns="http://www.w3.org/2000/svg">
<path d="M14.8749 3.0915C13.3166 1.52484 11.2416 0.666504 9.03325 0.666504C4.48325 0.666504 0.774919 4.37484 0.774919 8.92484C0.774919 10.3832 1.15825 11.7998 1.87492 13.0498L0.708252 17.3332L5.08325 16.1832C6.29158 16.8415 7.64992 17.1915 9.03325 17.1915C13.5833 17.1915 17.2916 13.4832 17.2916 8.93317C17.2916 6.72484 16.4333 4.64984 14.8749 3.0915ZM9.03325 15.7915C7.79992 15.7915 6.59159 15.4582 5.53325 14.8332L5.28325 14.6832L2.68325 15.3665L3.37492 12.8332L3.20825 12.5748C2.52492 11.4832 2.15825 10.2165 2.15825 8.92484C2.15825 5.1415 5.24158 2.05817 9.02492 2.05817C10.8583 2.05817 12.5833 2.77484 13.8749 4.07484C15.1749 5.37484 15.8833 7.09984 15.8833 8.93317C15.8999 12.7165 12.8166 15.7915 9.03325 15.7915ZM12.7999 10.6582C12.5916 10.5582 11.5749 10.0582 11.3916 9.98317C11.1999 9.9165 11.0666 9.88317 10.9249 10.0832C10.7833 10.2915 10.3916 10.7582 10.2749 10.8915C10.1583 11.0332 10.0333 11.0498 9.82492 10.9415C9.61658 10.8415 8.94992 10.6165 8.16658 9.9165C7.54992 9.3665 7.14158 8.6915 7.01658 8.48317C6.89992 8.27484 6.99992 8.1665 7.10825 8.05817C7.19992 7.9665 7.31659 7.8165 7.41659 7.69984C7.51659 7.58317 7.55825 7.4915 7.62492 7.35817C7.69159 7.2165 7.65825 7.09984 7.60825 6.99984C7.55825 6.89984 7.14158 5.88317 6.97492 5.4665C6.80825 5.0665 6.63325 5.1165 6.50825 5.10817C6.38325 5.10817 6.24992 5.10817 6.10825 5.10817C5.96658 5.10817 5.74992 5.15817 5.55825 5.3665C5.37492 5.57484 4.84159 6.07484 4.84159 7.0915C4.84159 8.10817 5.58325 9.0915 5.68325 9.22484C5.78325 9.3665 7.14158 11.4498 9.20825 12.3415C9.69992 12.5582 10.0833 12.6832 10.3833 12.7748C10.8749 12.9332 11.3249 12.9082 11.6833 12.8582C12.0833 12.7998 12.9083 12.3582 13.0749 11.8748C13.2499 11.3915 13.2499 10.9832 13.1916 10.8915C13.1333 10.7998 13.0083 10.7582 12.7999 10.6582Z" fill="#3F866E"/>
</svg>
